<svg width="39" height="34" viewBox="0 0 39 34" fill="none" xmlns="http://www.w3.org/2000/svg">
<path d="M38.902 11.3373C38.7258 8.39839 37.4487 5.80083 35.3055 3.81184C33.0888 1.7338 30.0942 0.694773 26.8353 0.872891C23.8406 1.05101 21.4479 2.60954 19.8184 3.98996C18.189 2.52049 15.7962 0.961951 12.8015 0.872891C9.55733 0.694773 6.56268 1.7338 4.33137 3.81184C2.18814 5.80083 0.911012 8.48745 0.734856 11.3373C0.397224 16.7848 3.90566 21.2823 6.63608 24.2212C9.45458 27.2938 13.5649 30.5444 16.7797 32.6818C17.6165 33.2756 18.6294 33.6318 19.7303 33.6318C20.7432 33.6318 21.6827 33.3349 22.4754 32.8154C22.4901 32.8006 22.5195 32.7857 22.5342 32.7709C22.5488 32.7709 22.5488 32.7561 22.5635 32.7561C25.8224 30.6186 30.0501 27.3383 32.898 24.3103C35.6578 21.2823 39.2396 16.6957 38.902 11.3373ZM20.3469 11.8569C22.1378 11.8569 23.5911 13.3263 23.5911 15.1372C23.5911 16.9481 22.1378 18.4175 20.3469 18.4175C18.556 18.4175 17.1027 16.9481 17.1027 15.1372C17.1027 13.3263 18.5413 11.8569 20.3469 11.8569ZM11.0987 18.4324C9.30778 18.4324 7.85449 16.9629 7.85449 15.152C7.85449 13.3412 9.30778 11.8717 11.0987 11.8717C12.8896 11.8717 14.3429 13.3412 14.3429 15.152C14.3429 16.9629 12.9043 18.4324 11.0987 18.4324ZM29.6685 18.4324C27.8776 18.4324 26.4243 16.9629 26.4243 15.152C26.4243 13.3412 27.8776 11.8717 29.6685 11.8717C31.4594 11.8717 32.9127 13.3412 32.9127 15.152C32.9127 16.9629 31.4594 18.4324 29.6685 18.4324Z" fill="white"/>
</svg>
