<svg xmlns="http://www.w3.org/2000/svg" viewBox="0 0 63 63"><defs><style>.cls-1{fill:#f33}.cls-2{fill:#fff}</style></defs><g id="Group_202" data-name="Group 202" transform="translate(-26 -26)"><path id="Rectangle_183" d="M0 0h63v63H0z" class="cls-1" data-name="Rectangle 183" transform="translate(26 26)"/><g id="Group_88" data-name="Group 88" transform="translate(40.549 42.774)"><g id="Group_10" data-name="Group 10"><g id="Group_9" data-name="Group 9"><path id="Path_12" d="M100.316.929l-1.379 1.378a2.384 2.384 0 0 1-3.374 0L94.206.888a3.328 3.328 0 0 0-4.732 0L83.3 7.08l-2.261 2.263a3.264 3.264 0 0 0-.967 2.53 3.413 3.413 0 0 0 .967 2.2l2.222 2.284L94.8 27.9a3.328 3.328 0 0 0 4.732 0l2.263-2.263a3.328 3.328 0 0 0 0-4.732l-7.489-7.489a2.372 2.372 0 0 1 0-3.353l1.255-1.255a2.372 2.372 0 0 1 3.353 0l7.489 7.489a3.328 3.328 0 0 0 4.732 0l2.263-2.263a3.328 3.328 0 0 0 0-4.732l-8.35-8.373a3.365 3.365 0 0 0-4.732 0z" class="cls-2" data-name="Path 12" transform="translate(-80.064 .1)"/></g></g></g></g></svg>